<svg width="64" height="64" viewBox="0 0 64 64" fill="none" xmlns="http://www.w3.org/2000/svg">
<g clip-path="url(#clip0_27_462)">
<path d="M57.6786 0C59.3452 0 60.8036 0.553571 62.0536 1.66071C63.3036 2.76786 63.9286 4.15476 63.9286 5.82143C63.9286 7.32143 63.3929 9.11905 62.3214 11.2143C54.4167 26.1905 48.881 35.1429 45.7143 38.0714C43.4048 40.2381 40.8095 41.3214 37.9286 41.3214C34.9286 41.3214 32.3512 40.2202 30.1964 38.0179C28.0417 35.8155 26.9643 33.2024 26.9643 30.1786C26.9643 27.131 28.0595 24.6071 30.25 22.6071L53.0357 1.92857C54.4405 0.642857 55.9881 0 57.6786 0ZM25.2143 36.9286C26.1429 38.7381 27.4107 40.2857 29.0179 41.5714C30.625 42.8571 32.4167 43.7619 34.3929 44.2857L34.4286 46.8214C34.5238 51.8929 32.9821 56.0238 29.8036 59.2143C26.625 62.4048 22.4762 64 17.3571 64C14.4286 64 11.8333 63.4464 9.57143 62.3393C7.30952 61.2321 5.49405 59.7143 4.125 57.7857C2.75595 55.8571 1.72619 53.6786 1.03571 51.25C0.345238 48.8214 0 46.2024 0 43.3929C0.166667 43.5119 0.654762 43.869 1.46429 44.4643C2.27381 45.0595 3.0119 45.5893 3.67857 46.0536C4.34524 46.5179 5.04762 46.9524 5.78571 47.3571C6.52381 47.7619 7.07143 47.9643 7.42857 47.9643C8.40476 47.9643 9.05952 47.5238 9.39286 46.6429C9.98809 45.0714 10.6726 43.7321 11.4464 42.625C12.2202 41.5179 13.0476 40.6131 13.9286 39.9107C14.8095 39.2083 15.8571 38.6429 17.0714 38.2143C18.2857 37.7857 19.5119 37.4821 20.75 37.3036C21.9881 37.125 23.4762 37 25.2143 36.9286Z" fill="#F8F8F8"/>
</g>
<defs>
<clipPath id="clip0_27_462">
<rect width="64" height="64" fill="white"/>
</clipPath>
</defs>
</svg>
