<svg width="69" height="71" viewBox="0 0 69 71" fill="none" xmlns="http://www.w3.org/2000/svg">
<g filter="url(#filter0_d_27_453)">
<path d="M63.287 53.5421C60.638 51.5011 53.585 45.8641 47.016 39.0901C42.65 34.5851 40.793 30.0751 37.483 26.6611C34.485 23.5691 31.758 21.7671 31.758 21.7671L30.99 22.5591L25.802 17.2091L27.806 15.1421C27.9687 14.9723 28.0595 14.7463 28.0595 14.5111C28.0595 14.276 27.9687 14.0499 27.806 13.8801L27.392 13.4531C27.394 13.4511 33.29 5.51711 40.745 7.71111C41.611 7.96811 42.383 8.40511 42.602 8.18211C42.9 7.87611 41.765 6.70011 41.1 6.02011C31.669 -3.62989 21.266 7.12411 21.261 7.12911L20.894 6.75011C20.815 6.66765 20.7202 6.60203 20.6152 6.5572C20.5102 6.51237 20.3972 6.48925 20.283 6.48925C20.1688 6.48925 20.0558 6.51237 19.9508 6.5572C19.8458 6.60203 19.751 6.66765 19.672 6.75011L10.433 16.2781C10.2703 16.4479 10.1795 16.674 10.1795 16.9091C10.1795 17.1443 10.2703 17.3703 10.433 17.5401C10.433 17.5401 11.564 19.5191 8.59801 19.8751C7.40401 20.0201 6.65601 20.2891 6.23201 20.6441C5.57016 21.3116 4.91049 21.9813 4.25301 22.6531C4.09031 22.8229 3.99948 23.049 3.99948 23.2841C3.99948 23.5193 4.09031 23.7453 4.25301 23.9151L11.167 31.0471C11.2461 31.1296 11.341 31.1952 11.4461 31.2401C11.5512 31.2849 11.6643 31.308 11.7785 31.308C11.8928 31.308 12.0058 31.2849 12.1109 31.2401C12.216 31.1952 12.311 31.1296 12.39 31.0471C12.39 31.0471 14.296 29.0571 14.337 29.0051C14.68 28.5671 14.942 27.7971 15.08 26.5651C15.428 23.5051 17.344 24.6731 17.344 24.6731C17.423 24.7559 17.518 24.8218 17.6232 24.8668C17.7284 24.9118 17.8416 24.935 17.956 24.935C18.0704 24.935 18.1837 24.9118 18.2889 24.8668C18.394 24.8218 18.489 24.7559 18.568 24.6731L20.572 22.6061L25.758 27.9551L24.99 28.7481C24.99 28.7481 26.738 31.5611 29.736 34.6531C33.045 38.0661 37.419 39.9811 41.786 44.4861C48.353 51.2601 53.818 58.5331 55.8 61.2661C56.548 62.2951 56.667 62.2001 57.58 61.2571L60.429 58.3191L63.276 55.3821C64.191 54.4361 64.285 54.3141 63.287 53.5421Z" fill="#F8F8F8"/>
<path d="M36.008 22.6888C36.8662 23.4641 37.699 24.2672 38.505 25.0968C40.097 26.7388 41.429 28.5758 42.764 30.5368L51.706 21.5938C53.3642 21.999 55.0988 21.9704 56.7426 21.5105C58.3865 21.0506 59.8842 20.1751 61.0914 18.9683C62.2986 17.7615 63.1746 16.2641 63.635 14.6204C64.0954 12.9767 64.1247 11.2421 63.72 9.5838L55.604 17.6998L49.844 16.1568L48.3 10.3938L56.414 2.2828C54.7562 1.87715 53.0217 1.90609 51.3784 2.36681C49.735 2.82753 48.2383 3.70446 47.033 4.9128C45.8256 6.11859 44.9493 7.61511 44.4884 9.25806C44.0276 10.901 43.9978 12.635 44.402 14.2928L36.008 22.6888ZM28.489 35.4288C27.6314 34.5432 26.8046 33.6283 26.01 32.6858L16.293 42.4038C14.6352 41.9986 12.901 42.0277 11.2578 42.4882C9.61452 42.9487 8.11776 43.8251 6.912 45.0328C3.029 48.9128 3.03 55.2068 6.912 59.0878C7.83455 60.011 8.92999 60.7434 10.1357 61.2431C11.3414 61.7428 12.6338 62 13.939 62C15.2442 62 16.5365 61.7428 17.7423 61.2431C18.948 60.7434 20.0434 60.011 20.966 59.0878C22.1735 57.8812 23.0498 56.384 23.5106 54.7404C23.9715 53.0968 24.0012 51.3622 23.597 49.7038L33.601 39.7008C31.761 38.3628 30.034 37.0218 28.489 35.4288ZM15.483 57.8208L9.722 56.2768L8.179 50.5148L12.397 46.2998L18.157 47.8408L19.7 53.6038L15.483 57.8208Z" fill="#F8F8F8"/>
</g>
<defs>
<filter id="filter0_d_27_453" x="-2" y="0" width="72" height="72" filterUnits="userSpaceOnUse" color-interpolation-filters="sRGB">
<feFlood flood-opacity="0" result="BackgroundImageFix"/>
<feColorMatrix in="SourceAlpha" type="matrix" values="0 0 0 0 0 0 0 0 0 0 0 0 0 0 0 0 0 0 127 0" result="hardAlpha"/>
<feOffset dy="4"/>
<feGaussianBlur stdDeviation="2"/>
<feComposite in2="hardAlpha" operator="out"/>
<feColorMatrix type="matrix" values="0 0 0 0 0 0 0 0 0 0 0 0 0 0 0 0 0 0 0.25 0"/>
<feBlend mode="normal" in2="BackgroundImageFix" result="effect1_dropShadow_27_453"/>
<feBlend mode="normal" in="SourceGraphic" in2="effect1_dropShadow_27_453" result="shape"/>
</filter>
</defs>
</svg>
