<svg width="66" height="66" viewBox="0 0 66 66" fill="none" xmlns="http://www.w3.org/2000/svg">
<path d="M28.3734 14.5704L17.5479 2.07516C16.2999 0.635243 14.0119 0.641643 12.5623 2.09436L3.65993 11.0122C1.01034 13.6649 0.251947 17.6038 1.78474 20.762C10.9419 39.7208 26.2328 55.0323 45.1797 64.2154C48.3349 65.7481 52.2709 64.9898 54.9205 62.3371L63.906 53.3361C65.362 51.8802 65.3652 49.5795 63.9124 48.3316L51.3685 37.5642C50.0565 36.4379 48.0181 36.5851 46.7029 37.9034L42.3381 42.2743C42.1147 42.5085 41.8205 42.6629 41.5008 42.7138C41.1812 42.7646 40.8536 42.7092 40.5685 42.5559C33.434 38.4477 27.5158 32.5221 23.4166 25.3826C23.2631 25.097 23.2075 24.7689 23.2584 24.4487C23.3093 24.1285 23.4638 23.8338 23.6982 23.6099L28.0502 19.2549C29.3686 17.9302 29.5126 15.8823 28.3734 14.5672V14.5704Z" fill="white" stroke="#F8F8F8" stroke-width="2" stroke-linecap="round" stroke-linejoin="round"/>
</svg>
