<svg width="115" height="21" viewBox="0 0 115 21" fill="none" xmlns="http://www.w3.org/2000/svg">
<path d="M10.1289 0.173761C10.166 0.101214 10.2697 0.101213 10.3069 0.173761L13.2638 5.9465C13.2783 5.97486 13.3055 5.9946 13.3369 5.99965L19.7427 7.02696C19.8232 7.03988 19.8553 7.13853 19.7977 7.19628L15.2194 11.7913C15.1969 11.8139 15.1865 11.8458 15.1915 11.8773L16.1936 18.2849C16.2062 18.3654 16.1223 18.4264 16.0496 18.3895L10.2631 15.4567C10.2346 15.4423 10.2011 15.4423 10.1726 15.4567L4.38613 18.3895C4.31342 18.4264 4.22953 18.3654 4.24212 18.2849L5.24425 11.8773C5.24917 11.8458 5.23879 11.8139 5.21629 11.7913L0.637981 7.19628C0.580432 7.13853 0.612479 7.03988 0.692985 7.02696L7.09878 5.99965C7.13025 5.9946 7.15742 5.97486 7.17195 5.9465L10.1289 0.173761Z" fill="#E9A426"/>
<path d="M33.9542 0.173761C33.9913 0.101214 34.095 0.101213 34.1322 0.173761L37.0891 5.9465C37.1036 5.97486 37.1308 5.9946 37.1622 5.99965L43.568 7.02696C43.6486 7.03988 43.6806 7.13853 43.623 7.19628L39.0447 11.7913C39.0222 11.8139 39.0119 11.8458 39.0168 11.8773L40.0189 18.2849C40.0315 18.3654 39.9476 18.4264 39.8749 18.3895L34.0884 15.4567C34.06 15.4423 34.0264 15.4423 33.998 15.4567L28.2114 18.3895C28.1387 18.4264 28.0548 18.3654 28.0674 18.2849L29.0696 11.8773C29.0745 11.8458 29.0641 11.8139 29.0416 11.7913L24.4633 7.19628C24.4057 7.13853 24.4378 7.03988 24.5183 7.02696L30.9241 5.99965C30.9556 5.9946 30.9827 5.97486 30.9973 5.9465L33.9542 0.173761Z" fill="#E9A426"/>
<path d="M57.5338 0.173761C57.5709 0.101214 57.6746 0.101213 57.7118 0.173761L60.6687 5.9465C60.6832 5.97486 60.7104 5.9946 60.7419 5.99965L67.1477 7.02696C67.2282 7.03988 67.2602 7.13853 67.2027 7.19628L62.6244 11.7913C62.6019 11.8139 62.5915 11.8458 62.5964 11.8773L63.5985 18.2849C63.6111 18.3654 63.5272 18.4264 63.4545 18.3895L57.668 15.4567C57.6396 15.4423 57.606 15.4423 57.5776 15.4567L51.7911 18.3895C51.7184 18.4264 51.6345 18.3654 51.6471 18.2849L52.6492 11.8773C52.6541 11.8458 52.6437 11.8139 52.6212 11.7913L48.0429 7.19628C47.9854 7.13853 48.0174 7.03988 48.0979 7.02696L54.5037 5.99965C54.5352 5.9946 54.5624 5.97486 54.5769 5.9465L57.5338 0.173761Z" fill="#E9A426"/>
<path d="M81.1135 0.173761C81.1506 0.101214 81.2543 0.101213 81.2915 0.173761L84.2484 5.9465C84.2629 5.97486 84.2901 5.9946 84.3215 5.99965L90.7273 7.02696C90.8079 7.03988 90.8399 7.13853 90.7823 7.19628L86.204 11.7913C86.1815 11.8139 86.1712 11.8458 86.1761 11.8773L87.1782 18.2849C87.1908 18.3654 87.1069 18.4264 87.0342 18.3895L81.2477 15.4567C81.2193 15.4423 81.1857 15.4423 81.1573 15.4567L75.3708 18.3895C75.298 18.4264 75.2141 18.3654 75.2267 18.2849L76.2289 11.8773C76.2338 11.8458 76.2234 11.8139 76.2009 11.7913L71.6226 7.19628C71.5651 7.13853 71.5971 7.03988 71.6776 7.02696L78.0834 5.99965C78.1149 5.9946 78.142 5.97486 78.1566 5.9465L81.1135 0.173761Z" fill="#E9A426"/>
<path d="M104.693 0.173761C104.73 0.101214 104.834 0.101213 104.871 0.173761L107.828 5.9465C107.843 5.97486 107.87 5.9946 107.901 5.99965L114.307 7.02696C114.388 7.03988 114.42 7.13853 114.362 7.19628L109.784 11.7913C109.761 11.8139 109.751 11.8458 109.756 11.8773L110.758 18.2849C110.77 18.3654 110.687 18.4264 110.614 18.3895L104.827 15.4567C104.799 15.4423 104.765 15.4423 104.737 15.4567L98.9504 18.3895C98.8777 18.4264 98.7938 18.3654 98.8064 18.2849L99.8085 11.8773C99.8135 11.8458 99.8031 11.8139 99.7806 11.7913L95.2023 7.19628C95.1447 7.13853 95.1768 7.03988 95.2573 7.02696L101.663 5.99965C101.695 5.9946 101.722 5.97486 101.736 5.9465L104.693 0.173761Z" fill="#CACDD8"/>
</svg>
